<?xml version="1.0" encoding="utf-8"?>
<!-- Svg Vector Icons : http://www.onlinewebfonts.com/icon -->
<!DOCTYPE svg PUBLIC "-//W3C//DTD SVG 1.1//EN" "http://www.w3.org/Graphics/SVG/1.1/DTD/svg11.dtd">
<svg version="1.1" xmlns="http://www.w3.org/2000/svg" 
    xmlns:xlink="http://www.w3.org/1999/xlink" x="0px" y="0px" viewBox="0 0 256 256" enable-background="new 0 0 256 256" xml:space="preserve">
<metadata> Svg Vector Icons : http://www.onlinewebfonts.com/icon </metadata>
<g><g><g><g><path fill="#000000" d="M10,246h236V10H10V246z M24.1,87.7C29,84.3,36.5,78,46.6,69c10.1-9.1,18.5-15.6,25.1-19.5c8.6-5,16.4-6.6,23.3-4.6c3.3,1,6.4,3.4,9.3,7.3c2.9,3.9,5.1,8.1,6.5,12.7c1.3,4.3,3.4,14.3,6.2,30.1c0.4,2.5,0.9,6.8,1.6,13.1c0.7,6.3,1.3,11.5,1.8,15.4c0.6,4,1.7,8.5,3.5,13.4c1.8,5,4.1,8.9,6.9,11.8c5.3,5.6,10.6,6.5,16,2.6c3.4-2.6,7.8-8.6,13.1-18.2c5.8-11.1,8.9-19.9,9.6-26.3c0.9-9.3-0.8-15.4-4.9-18.2c-4.1-2.8-11.1-3.8-20.9-2.9c2-6,4.7-11.6,8.2-16.8s7.1-9.5,10.9-12.9c3.8-3.4,7.8-6.3,11.8-8.9c4.1-2.6,7.6-4.4,10.6-5.6c2.9-1.2,5.4-1.9,7.5-2.3c16.5-2.5,28,0.3,34.3,8.3c4.5,5.8,5.8,13.8,3.9,24.2c-1.7,8.9-6.8,22.8-15.1,41.6c-8.4,18.8-19,36.7-31.7,53.7c-14.6,19.6-29.9,34.1-45.9,43.5c-4.2,2.6-8.8,4.5-14,5.8s-10.4,1.2-15.6-0.3c-7.5-3.2-13.8-10.8-18.9-22.9c-2.6-6.3-6.1-18.3-10.5-36.2c-4.4-17.3-7.7-28.7-9.7-34.3c-0.6-1.6-1.4-4.1-2.3-7.4c-0.9-3.3-1.8-6.3-2.7-8.8s-2-4.9-3.4-7.1c-2.1-3.5-4.6-5.4-7.6-5.5c-3-0.1-6.5,0.5-10.6,1.9c-4.1,1.4-7.4,1.9-10,1.6c-1.5-0.2-2.8-1.5-3.9-3.7c-1.2-2.2-2.7-3.8-4.7-4.8L24.1,87.7L24.1,87.7L24.1,87.7z"/></g></g><g></g><g></g><g></g><g></g><g></g><g></g><g></g><g></g><g></g><g></g><g></g><g></g><g></g><g></g><g></g></g></g>
</svg>